<?xml version="1.0" standalone="no"?>
<!DOCTYPE svg PUBLIC "-//W3C//DTD SVG 20010904//EN"
 "http://www.w3.org/TR/2001/REC-SVG-20010904/DTD/svg10.dtd">
<svg version="1.0" xmlns="http://www.w3.org/2000/svg"
 width="844.000000pt" height="844.000000pt" viewBox="0 0 844.000000 844.000000"
 preserveAspectRatio="xMidYMid meet">
<metadata>
Created by potrace 1.14, written by Peter Selinger 2001-2017
</metadata>
<g transform="translate(0.000000,844.000000) scale(0.100000,-0.100000)"
fill="#000000" stroke="none">
<path d="M1070 4217 l0 -4214 450 0 450 0 0 3764 0 3763 2250 0 2250 0 0
-2860 0 -2860 -895 0 c-492 0 -896 -3 -896 -7 -1 -5 -2 -207 -3 -450 l-1 -443
1347 0 1348 0 0 3760 0 3760 -3150 0 -3150 0 0 -4213z"/>
<path d="M2896 6630 c-1 -3 -2 -1494 -2 -3315 l1 -3310 450 -1 450 -1 0 2864
c0 1574 2 2864 5 2864 3 1 197 2 433 3 l427 1 0 -1507 0 -1508 55 0 c30 -1
210 -1 400 -1 190 0 368 0 395 1 l50 0 0 1958 0 1957 -1331 0 c-732 0 -1332
-2 -1333 -5z"/>
</g>
</svg>
